<?xml version="1.0" encoding="utf-8"?>
<!-- Generator: Adobe Illustrator 23.0.3, SVG Export Plug-In . SVG Version: 6.00 Build 0)  -->
<svg version="1.1" id="Layer_1" xmlns="http://www.w3.org/2000/svg" xmlns:xlink="http://www.w3.org/1999/xlink" x="0px" y="0px"
	 viewBox="0 0 1000 1000" style="enable-background:new 0 0 1000 1000;" xml:space="preserve">
<style type="text/css">
	.st0{fill:#81ECEC;}
	.st1{fill:#3742FA;}
	.st2{fill:#1E3799;}
</style>
<g id="Logo">
	<g id="Tertiary_Color">
		<polygon class="st0" points="742.03,530.13 668.86,603.3 631.88,566.32 705.41,492.78 		"/>
		<polygon class="st0" points="630.2,416.1 555.94,490.38 518.94,453.38 593.57,378.76 		"/>
		<polygon class="st0" points="479.97,453.38 442.99,490.38 368.71,416.1 405.34,378.76 		"/>
		<polygon class="st0" points="367.05,566.32 330.05,603.3 256.88,530.11 293.5,492.78 		"/>
		<polygon class="st0" points="536.45,735.72 499.47,772.7 462.47,735.72 499.47,698.74 		"/>
		<polygon class="st0" points="536.45,622.8 499.47,659.78 462.47,622.8 499.47,585.79 		"/>
		<polygon class="st0" points="649.37,622.8 612.39,659.78 575.41,622.8 612.39,585.79 		"/>
		<polygon class="st0" points="536.45,509.85 499.47,546.83 462.47,509.85 499.47,472.87 		"/>
		<polygon class="st0" points="423.5,622.8 386.52,659.78 349.54,622.8 386.52,585.79 		"/>
	</g>
	<g id="Secondary_Color">
		<polygon class="st1" points="574.28,359.09 499.47,433.9 424.63,359.09 499.47,282.78 		"/>
		<polygon class="st1" points="686.11,473.11 612.39,546.83 575.41,509.85 649.49,435.77 		"/>
		<polygon class="st1" points="423.5,509.85 386.52,546.83 312.8,473.11 349.42,435.77 		"/>
		
			<rect x="416.84" y="653.1" transform="matrix(0.7071 -0.7071 0.7071 0.7071 -350.5556 512.1836)" class="st1" width="52.3" height="52.31"/>
		<polygon class="st1" points="592.92,679.25 555.92,716.25 518.94,679.26 555.92,642.27 		"/>
		
			<rect x="529.77" y="540.17" transform="matrix(0.7073 -0.707 0.707 0.7073 -237.6195 558.8098)" class="st1" width="52.31" height="52.3"/>
		<polygon class="st1" points="479.97,566.32 442.99,603.3 406.01,566.32 442.99,529.34 		"/>
	</g>
	<path id="Primary_Color" class="st2" d="M936.2,656.74c-12.58-12.59-31.64-14.75-46.45-6.51L774.23,536.92l32-32.02
		c5.38-5.38,5.38-14.09,0-19.47c-5.38-5.38-14.12-5.38-19.5,0l-32.18,32.2l-37.36-36.64l32.95-32.95c5.38-5.38,5.38-14.11,0-19.47
		c-5.36-5.38-14.09-5.38-19.47,0l-33.15,33.15l-37.34-36.64l33.9-33.9c5.38-5.38,5.38-14.09,0-19.47c-5.38-5.38-14.11-5.38-19.49,0
		l-34.08,34.08l-37.34-36.62l34.86-34.86c5.36-5.38,5.36-14.09,0-19.47c-5.38-5.38-14.12-5.38-19.49,0l-35.03,35.04l-76.36-74.9
		l101.18-103.18c6.19-6.29,0.53-11.53-5.62-5.64L499.47,267.42L396.21,166.14c-6.15-5.89-11.81-0.65-5.62,5.64l101.19,103.18
		l-76.36,74.9l-35.05-35.04c-5.38-5.38-14.11-5.38-19.47,0c-5.38,5.36-5.38,14.09,0,19.47l34.86,34.86l-37.36,36.62l-34.08-34.08
		c-5.38-5.38-14.11-5.38-19.49,0c-5.38,5.36-5.38,14.09,0,19.47l33.9,33.9l-37.34,36.62l-33.15-33.13c-5.38-5.38-14.09-5.38-19.47,0
		c-5.38,5.36-5.38,14.09,0,19.47l32.95,32.95l-37.34,36.64l-32.19-32.2c-5.38-5.38-14.12-5.38-19.49,0
		c-5.38,5.36-5.38,14.09,0,19.47l32.02,32.02L109.16,650.23c-14.81-8.24-33.86-6.08-46.45,6.51c-15.2,15.21-15.2,39.84,0,55.04
		c15.2,15.2,39.86,15.2,55.07,0c12.56-12.58,14.75-31.64,6.49-46.45l113.32-115.53l72.99,72.99l-21.16,21.14
		c-5.38,5.38-5.38,14.12,0,19.49c5.38,5.38,14.12,5.38,19.48,0l21.16-21.16l37,36.98l-21.56,21.56c-5.38,5.38-5.38,14.11,0,19.49
		c5.36,5.38,14.09,5.38,19.48,0l21.55-21.55l36.98,36.98l-21.95,21.98c-5.38,5.36-5.38,14.09,0,19.47c5.38,5.38,14.11,5.38,19.49,0
		l21.95-21.95l36.98,36.98l-22.35,22.35c-5.38,5.38-5.38,14.12,0,19.49c5.36,5.38,14.09,5.38,19.47,0l22.37-22.37l22.35,22.37
		c5.38,5.38,14.12,5.38,19.5,0c5.38-5.38,5.38-14.12,0-19.49l-22.38-22.35l36.99-36.98l21.97,21.95c5.36,5.38,14.09,5.38,19.47,0
		c5.38-5.38,5.38-14.12,0-19.49l-21.95-21.95l36.98-36.98l21.56,21.55c5.38,5.38,14.11,5.38,19.49,0c5.36-5.38,5.36-14.11,0-19.49
		l-21.56-21.56l36.98-36.98l21.16,21.16c5.36,5.38,14.1,5.38,19.48,0c5.38-5.38,5.38-14.11,0-19.49l-21.16-21.14l72.99-72.99
		l113.32,115.53c-8.25,14.81-6.08,33.86,6.51,46.45c15.19,15.2,39.84,15.2,55.04,0C951.41,696.58,951.41,671.95,936.2,656.74z
		 M649.49,435.77l36.62,37.34l-73.72,73.72l-36.98-36.98L649.49,435.77z M479.97,566.32l-36.98,36.98l-36.98-36.98l36.98-36.98
		L479.97,566.32z M462.47,509.85l37-36.98l36.98,36.98l-36.98,36.98L462.47,509.85z M499.47,585.79l36.98,37l-36.98,36.98l-37-36.98
		L499.47,585.79z M518.94,566.32l37-36.98l36.98,36.98l-37,36.98L518.94,566.32z M593.57,378.76l36.63,37.34l-74.26,74.28l-37-37
		L593.57,378.76z M499.47,282.78l74.81,76.3l-74.81,74.82l-74.84-74.82L499.47,282.78z M405.34,378.76l74.64,74.62l-36.98,37
		l-74.28-74.28L405.34,378.76z M349.42,435.77l74.08,74.08l-36.98,36.98l-73.72-73.72L349.42,435.77z M256.88,530.11l36.62-37.34
		l73.54,73.54l-37,36.98L256.88,530.11z M349.54,622.8l36.98-37l36.98,37l-36.98,36.98L349.54,622.8z M406.01,679.25l36.98-36.98
		l36.98,37l-36.98,36.98L406.01,679.25z M499.47,772.7l-37-36.98l37-36.98l36.98,36.98L499.47,772.7z M555.92,716.25l-36.99-36.98
		l36.99-37l37,36.98L555.92,716.25z M612.39,659.78l-36.98-36.98l36.98-37l36.98,37L612.39,659.78z M668.86,603.3l-36.98-36.98
		l73.52-73.54l36.62,37.36L668.86,603.3z"/>
</g>
</svg>
