<?xml version="1.0" encoding="utf-8"?>
<!-- Generator: Adobe Illustrator 23.0.3, SVG Export Plug-In . SVG Version: 6.00 Build 0)  -->
<svg version="1.1" id="Logo_1_" xmlns="http://www.w3.org/2000/svg" xmlns:xlink="http://www.w3.org/1999/xlink" x="0px" y="0px"
	 viewBox="0 0 1000 1000" style="enable-background:new 0 0 1000 1000;" xml:space="preserve">
<style type="text/css">
	.st0{fill:#3742FA;}
	.st1{fill:#81ECEC;}
	.st2{fill:#1E3799;}
</style>
<g id="Typography">
	<path id="L" class="st0" d="M230.06,917.21V803.79h7.92v106.54h52.32v6.88H230.06z"/>
	<path id="o" class="st0" d="M337.81,919.27c-4.94,0-9.64-0.98-14.11-2.93c-4.48-1.95-8.41-4.76-11.79-8.43
		c-3.39-3.67-6.08-8.18-8.09-13.51c-2.01-5.34-3.01-11.45-3.01-18.33c0-6.88,1-13.05,3.01-18.5c2.01-5.45,4.7-10.01,8.09-13.68
		c3.38-3.67,7.31-6.48,11.79-8.43c4.47-1.95,9.18-2.93,14.11-2.93c4.93,0,9.67,0.98,14.2,2.93c4.53,1.95,8.49,4.76,11.88,8.43
		c3.38,3.67,6.08,8.23,8.09,13.68c2.01,5.45,3.01,11.62,3.01,18.5c0,6.89-1.01,12.99-3.01,18.33c-2.01,5.33-4.71,9.84-8.09,13.51
		c-3.39,3.67-7.34,6.48-11.88,8.43C347.47,918.3,342.74,919.27,337.81,919.27z M337.81,912.56c4.13,0,8-0.89,11.62-2.67
		c3.61-1.78,6.71-4.27,9.29-7.49c2.58-3.21,4.62-7.06,6.11-11.53c1.49-4.48,2.24-9.41,2.24-14.8c0-5.51-0.75-10.5-2.24-14.97
		c-1.49-4.48-3.53-8.35-6.11-11.62c-2.58-3.27-5.68-5.79-9.29-7.57c-3.61-1.78-7.49-2.67-11.62-2.67c-4.13,0-7.98,0.89-11.53,2.67
		c-3.56,1.78-6.63,4.3-9.21,7.57c-2.58,3.27-4.62,7.14-6.11,11.62c-1.49,4.48-2.24,9.47-2.24,14.97c0,5.39,0.74,10.33,2.24,14.8
		c1.49,4.48,3.53,8.32,6.11,11.53c2.58,3.21,5.65,5.71,9.21,7.49C329.83,911.67,333.68,912.56,337.81,912.56z"/>
	<path id="o_1_" class="st0" d="M429.89,919.27c-4.94,0-9.64-0.98-14.11-2.93c-4.47-1.95-8.41-4.76-11.79-8.43
		c-3.39-3.67-6.08-8.18-8.09-13.51c-2.01-5.34-3.01-11.45-3.01-18.33c0-6.88,1-13.05,3.01-18.5c2.01-5.45,4.7-10.01,8.09-13.68
		c3.38-3.67,7.32-6.48,11.79-8.43c4.48-1.95,9.18-2.93,14.11-2.93c4.93,0,9.66,0.98,14.2,2.93c4.53,1.95,8.49,4.76,11.88,8.43
		c3.38,3.67,6.08,8.23,8.09,13.68c2.01,5.45,3.01,11.62,3.01,18.5c0,6.89-1.01,12.99-3.01,18.33c-2.01,5.33-4.71,9.84-8.09,13.51
		c-3.39,3.67-7.34,6.48-11.88,8.43C439.55,918.3,434.82,919.27,429.89,919.27z M429.89,912.56c4.13,0,8-0.89,11.62-2.67
		c3.61-1.78,6.71-4.27,9.29-7.49c2.58-3.21,4.62-7.06,6.11-11.53c1.49-4.48,2.24-9.41,2.24-14.8c0-5.51-0.75-10.5-2.24-14.97
		c-1.49-4.48-3.53-8.35-6.11-11.62c-2.58-3.27-5.68-5.79-9.29-7.57c-3.61-1.78-7.49-2.67-11.62-2.67c-4.13,0-7.98,0.89-11.53,2.67
		c-3.56,1.78-6.63,4.3-9.21,7.57c-2.58,3.27-4.62,7.14-6.11,11.62c-1.49,4.48-2.24,9.47-2.24,14.97c0,5.39,0.75,10.33,2.24,14.8
		c1.49,4.48,3.53,8.32,6.11,11.53c2.58,3.21,5.65,5.71,9.21,7.49C421.91,911.67,425.75,912.56,429.89,912.56z"/>
	<path id="m" class="st0" d="M491.84,917.21v-82.61h6.54l0.69,12.74h0.52c3.67-4.24,7.77-7.77,12.31-10.58
		c4.53-2.81,9.09-4.22,13.68-4.22c6.65,0,11.76,1.52,15.32,4.56c3.55,3.04,6.08,7.14,7.57,12.31c4.82-5.16,9.49-9.27,14.03-12.31
		c4.53-3.04,9.21-4.56,14.03-4.56c16.52,0,24.78,10.56,24.78,31.67v53.01h-7.74v-51.98c0-8.84-1.49-15.35-4.48-19.54
		c-2.99-4.19-7.63-6.28-13.94-6.28c-7.46,0-15.72,5.16-24.78,15.49v62.3h-7.57v-51.98c0-8.84-1.49-15.35-4.48-19.54
		c-2.98-4.19-7.69-6.28-14.11-6.28c-7.46,0-15.72,5.16-24.78,15.49v62.3H491.84z"/>
	<path id="_x2E_" class="st0" d="M634.7,919.27c-1.95,0-3.67-0.69-5.16-2.07c-1.49-1.38-2.24-3.27-2.24-5.68
		c0-2.52,0.74-4.48,2.24-5.85c1.49-1.38,3.21-2.06,5.16-2.06c1.95,0,3.64,0.69,5.08,2.06c1.43,1.38,2.15,3.33,2.15,5.85
		c0,2.41-0.72,4.3-2.15,5.68C638.34,918.59,636.65,919.27,634.7,919.27z"/>
	<path id="j" class="st0" d="M661.89,956.62c-1.95,0-3.9-0.2-5.85-0.6c-1.95-0.4-3.55-0.89-4.82-1.46l1.89-6.2
		c1.03,0.35,2.32,0.72,3.87,1.12c1.55,0.4,3.12,0.6,4.73,0.6c4.59,0,7.57-1.69,8.95-5.08c1.38-3.39,2.07-7.72,2.07-12.99v-97.42
		h7.74v97.93c0,8.15-1.49,14.2-4.48,18.16C673.02,954.64,668.31,956.62,661.89,956.62z M676.69,814.63c-1.84,0-3.44-0.63-4.82-1.89
		c-1.38-1.26-2.07-2.87-2.07-4.82c0-2.18,0.69-3.87,2.07-5.08c1.38-1.2,2.98-1.81,4.82-1.81c1.95,0,3.61,0.6,4.99,1.81
		c1.38,1.2,2.07,2.9,2.07,5.08c0,1.95-0.69,3.56-2.07,4.82C680.31,814,678.64,814.63,676.69,814.63z"/>
	<path id="s" class="st0" d="M732.11,919.27c-6.2,0-11.88-1.12-17.04-3.36c-5.16-2.24-9.58-4.91-13.25-8l4.48-5.68
		c3.55,2.98,7.34,5.48,11.36,7.49c4.01,2.01,9.01,3.01,14.97,3.01c6.54,0,11.45-1.64,14.72-4.91c3.27-3.27,4.9-7.08,4.9-11.45
		c0-2.52-0.6-4.76-1.81-6.71c-1.2-1.95-2.78-3.61-4.73-4.99c-1.95-1.38-4.1-2.58-6.45-3.61c-2.35-1.03-4.73-2.01-7.14-2.93
		c-3.1-1.14-6.22-2.35-9.38-3.61c-3.16-1.26-6-2.78-8.52-4.56c-2.52-1.78-4.56-3.9-6.11-6.37c-1.55-2.47-2.32-5.48-2.32-9.04
		c0-2.98,0.57-5.82,1.72-8.52c1.15-2.69,2.87-5.05,5.16-7.06c2.29-2.01,5.08-3.59,8.35-4.73c3.27-1.15,7.08-1.72,11.45-1.72
		c4.36,0,8.63,0.81,12.82,2.41c4.19,1.61,7.77,3.67,10.76,6.2l-4.13,5.33c-2.75-2.07-5.68-3.81-8.78-5.25
		c-3.1-1.43-6.77-2.15-11.02-2.15c-3.21,0-5.97,0.43-8.26,1.29c-2.3,0.86-4.22,1.98-5.77,3.36c-1.55,1.38-2.7,2.99-3.44,4.82
		c-0.75,1.84-1.12,3.67-1.12,5.51c0,2.41,0.54,4.45,1.64,6.11c1.09,1.66,2.55,3.13,4.39,4.39c1.83,1.26,3.93,2.38,6.28,3.36
		c2.35,0.98,4.73,1.92,7.14,2.84c3.21,1.26,6.43,2.53,9.64,3.79c3.21,1.26,6.11,2.81,8.69,4.65c2.58,1.84,4.67,4.1,6.28,6.8
		c1.6,2.7,2.41,6.05,2.41,10.07c0,3.1-0.6,6.05-1.81,8.86c-1.2,2.81-3.01,5.28-5.42,7.4c-2.41,2.12-5.33,3.82-8.78,5.08
		C740.54,918.64,736.58,919.27,732.11,919.27z"/>
</g>
<g id="Icon">
	<g id="Tertiary_Color">
		<polygon class="st1" points="742.03,413.13 668.86,486.3 631.88,449.32 705.41,375.78 		"/>
		<polygon class="st1" points="630.2,299.1 555.94,373.38 518.94,336.38 593.57,261.76 		"/>
		<polygon class="st1" points="479.97,336.38 442.99,373.38 368.71,299.1 405.34,261.76 		"/>
		<polygon class="st1" points="367.05,449.32 330.05,486.3 256.88,413.11 293.5,375.78 		"/>
		<polygon class="st1" points="536.45,618.72 499.47,655.7 462.47,618.72 499.47,581.74 		"/>
		<polygon class="st1" points="536.45,505.8 499.47,542.78 462.47,505.8 499.47,468.79 		"/>
		<polygon class="st1" points="649.37,505.8 612.39,542.78 575.41,505.8 612.39,468.79 		"/>
		<polygon class="st1" points="536.45,392.85 499.47,429.83 462.47,392.85 499.47,355.87 		"/>
		<polygon class="st1" points="423.5,505.8 386.52,542.78 349.54,505.8 386.52,468.79 		"/>
	</g>
	<g id="Secondary_Color">
		<polygon class="st0" points="574.28,242.09 499.47,316.9 424.63,242.09 499.47,165.78 		"/>
		<polygon class="st0" points="686.11,356.11 612.39,429.83 575.41,392.85 649.49,318.77 		"/>
		<polygon class="st0" points="423.5,392.85 386.52,429.83 312.8,356.11 349.42,318.77 		"/>
		
			<rect x="416.84" y="536.1" transform="matrix(0.7071 -0.7071 0.7071 0.7071 -267.8251 477.9161)" class="st0" width="52.3" height="52.31"/>
		<polygon class="st0" points="592.92,562.25 555.92,599.25 518.94,562.26 555.92,525.27 		"/>
		
			<rect x="529.77" y="423.17" transform="matrix(0.7073 -0.707 0.707 0.7073 -154.905 524.5582)" class="st0" width="52.31" height="52.3"/>
		<polygon class="st0" points="479.97,449.32 442.99,486.3 406.01,449.32 442.99,412.34 		"/>
	</g>
	<path id="Primary_Color" class="st2" d="M936.2,539.74c-12.58-12.59-31.64-14.75-46.45-6.51L774.23,419.92l32-32.02
		c5.38-5.38,5.38-14.09,0-19.47c-5.38-5.38-14.12-5.38-19.5,0l-32.18,32.2l-37.36-36.64l32.95-32.95c5.38-5.38,5.38-14.11,0-19.47
		c-5.36-5.38-14.09-5.38-19.47,0l-33.15,33.15l-37.34-36.64l33.9-33.9c5.38-5.38,5.38-14.09,0-19.47c-5.38-5.38-14.11-5.38-19.49,0
		l-34.08,34.08l-37.34-36.62l34.86-34.86c5.36-5.38,5.36-14.09,0-19.47c-5.38-5.38-14.12-5.38-19.49,0l-35.03,35.04l-76.36-74.9
		L608.32,54.78c6.19-6.29,0.53-11.53-5.62-5.64L499.47,150.42L396.21,49.14c-6.15-5.89-11.81-0.65-5.62,5.64l101.19,103.18
		l-76.36,74.9l-35.05-35.04c-5.38-5.38-14.11-5.38-19.47,0c-5.38,5.36-5.38,14.09,0,19.47l34.86,34.86l-37.36,36.62l-34.08-34.08
		c-5.38-5.38-14.11-5.38-19.49,0c-5.38,5.36-5.38,14.09,0,19.47l33.9,33.9l-37.34,36.62l-33.15-33.13c-5.38-5.38-14.09-5.38-19.47,0
		c-5.38,5.36-5.38,14.09,0,19.47l32.95,32.95l-37.34,36.64l-32.19-32.2c-5.38-5.38-14.12-5.38-19.49,0
		c-5.38,5.36-5.38,14.09,0,19.47l32.02,32.02L109.16,533.23c-14.81-8.24-33.86-6.08-46.45,6.51c-15.2,15.21-15.2,39.84,0,55.04
		c15.2,15.2,39.86,15.2,55.07,0c12.56-12.58,14.75-31.64,6.49-46.45l113.32-115.53l72.99,72.99l-21.16,21.14
		c-5.38,5.38-5.38,14.12,0,19.49c5.38,5.38,14.12,5.38,19.48,0l21.16-21.16l37,36.98l-21.56,21.56c-5.38,5.38-5.38,14.11,0,19.49
		c5.36,5.38,14.09,5.38,19.48,0l21.55-21.55l36.98,36.98l-21.95,21.98c-5.38,5.36-5.38,14.09,0,19.47c5.38,5.38,14.11,5.38,19.49,0
		l21.95-21.95l36.98,36.98l-22.35,22.35c-5.38,5.38-5.38,14.12,0,19.49c5.36,5.38,14.09,5.38,19.47,0l22.37-22.37l22.35,22.37
		c5.38,5.38,14.12,5.38,19.5,0c5.38-5.38,5.38-14.12,0-19.49l-22.38-22.35l36.99-36.98l21.97,21.95c5.36,5.38,14.09,5.38,19.47,0
		c5.38-5.38,5.38-14.12,0-19.49l-21.95-21.95l36.98-36.98l21.56,21.55c5.38,5.38,14.11,5.38,19.49,0c5.36-5.38,5.36-14.11,0-19.49
		l-21.56-21.56l36.98-36.98l21.16,21.16c5.36,5.38,14.1,5.38,19.48,0c5.38-5.38,5.38-14.11,0-19.49l-21.16-21.14l72.99-72.99
		l113.32,115.53c-8.25,14.81-6.08,33.86,6.51,46.45c15.19,15.2,39.84,15.2,55.04,0C951.41,579.58,951.41,554.95,936.2,539.74z
		 M649.49,318.77l36.62,37.34l-73.72,73.72l-36.98-36.98L649.49,318.77z M479.97,449.32l-36.98,36.98l-36.98-36.98l36.98-36.98
		L479.97,449.32z M462.47,392.85l37-36.98l36.98,36.98l-36.98,36.98L462.47,392.85z M499.47,468.79l36.98,37l-36.98,36.98l-37-36.98
		L499.47,468.79z M518.94,449.32l37-36.98l36.98,36.98l-37,36.98L518.94,449.32z M593.57,261.76l36.63,37.34l-74.26,74.28l-37-37
		L593.57,261.76z M499.47,165.78l74.81,76.3l-74.81,74.82l-74.84-74.82L499.47,165.78z M405.34,261.76l74.64,74.62l-36.98,37
		l-74.28-74.28L405.34,261.76z M349.42,318.77l74.08,74.08l-36.98,36.98l-73.72-73.72L349.42,318.77z M256.88,413.11l36.62-37.34
		l73.54,73.54l-37,36.98L256.88,413.11z M349.54,505.8l36.98-37l36.98,37l-36.98,36.98L349.54,505.8z M406.01,562.25l36.98-36.98
		l36.98,37l-36.98,36.98L406.01,562.25z M499.47,655.7l-37-36.98l37-36.98l36.98,36.98L499.47,655.7z M555.92,599.25l-36.99-36.98
		l36.99-37l37,36.98L555.92,599.25z M612.39,542.78l-36.98-36.98l36.98-37l36.98,37L612.39,542.78z M668.86,486.3l-36.98-36.98
		l73.52-73.54l36.62,37.36L668.86,486.3z"/>
</g>
</svg>
